<?xml version="1.0" standalone="no"?>
<!DOCTYPE svg PUBLIC "-//W3C//DTD SVG 20010904//EN"
 "http://www.w3.org/TR/2001/REC-SVG-20010904/DTD/svg10.dtd">
<svg version="1.0" xmlns="http://www.w3.org/2000/svg"
 width="1920.000000pt" height="1920.000000pt" viewBox="0 0 1920.000000 1920.000000"
 preserveAspectRatio="xMidYMid meet">
<metadata>
Created by potrace 1.16, written by Peter Selinger 2001-2019
</metadata>
<g transform="translate(0.000000,1920.000000) scale(0.100000,-0.100000)"
fill="#000000" stroke="none">
<path d="M13755 9666 c-3020 -1322 -9107 -3984 -11548 -5050 l-2019 -881 1401
-3 1400 -2 2858 1121 c1572 617 2863 1123 2870 1126 7 3 24 -21 41 -59 39 -83
636 -1398 837 -1841 l157 -347 1399 0 c769 0 1399 3 1399 6 0 4 -329 711 -731
1573 -403 861 -733 1573 -736 1581 -3 12 249 114 1093 445 603 237 1101 432
1105 433 5 2 9 -897 9 -2017 l0 -2021 1335 0 1335 0 0 3450 c0 1898 -1 3450
-2 3449 -2 0 -993 -433 -2203 -963z"/>
<path d="M1296 2888 c-22 -61 -356 -1030 -356 -1034 0 -2 51 -4 114 -4 l114 0
39 118 40 117 204 3 205 2 37 -120 37 -120 120 0 119 0 -68 198 c-38 108 -122
351 -187 540 l-118 342 -142 0 -142 0 -16 -42z m221 -381 c34 -106 65 -201 69
-210 6 -15 -7 -17 -136 -17 -126 0 -141 2 -136 16 3 9 34 103 68 210 34 107
65 194 68 194 3 0 33 -87 67 -193z"/>
<path d="M2110 2390 l0 -540 110 0 110 0 2 372 3 371 229 -371 230 -372 113 0
113 0 0 540 0 540 -105 0 -105 0 0 -347 c0 -298 -2 -345 -14 -333 -8 8 -107
165 -220 348 l-207 332 -130 0 -129 0 0 -540z"/>
<path d="M3417 2558 c-71 -205 -155 -448 -187 -540 l-58 -168 117 0 117 0 37
120 37 120 204 0 204 0 39 -117 40 -118 116 -3 c64 -1 117 1 117 5 0 4 -83
247 -184 538 l-183 530 -144 3 -144 2 -128 -372z m343 -72 l69 -206 -140 0
c-104 0 -139 3 -139 12 0 20 131 410 136 405 3 -2 36 -97 74 -211z"/>
<path d="M4350 2390 l0 -540 105 0 105 0 0 363 c0 200 3 367 6 370 4 3 109
-159 233 -361 l227 -367 117 -3 117 -3 0 541 0 540 -110 0 -110 0 -2 -346 -3
-347 -215 346 -215 347 -127 0 -128 0 0 -540z"/>
<path d="M5420 2835 l0 -95 155 0 155 0 0 -445 0 -445 115 0 115 0 0 445 0
445 155 0 155 0 0 95 0 95 -425 0 -425 0 0 -95z"/>
<path d="M6575 2648 c-53 -156 -137 -399 -186 -541 l-88 -258 116 3 117 3 37
115 38 115 203 3 204 2 39 -120 39 -120 118 0 c65 0 118 1 118 3 0 3 -298 866
-342 990 l-31 87 -142 0 -142 0 -98 -282z m372 -364 c-2 -2 -65 -3 -139 -2
l-135 3 61 190 c34 105 66 199 70 210 6 15 25 -29 78 -188 39 -115 68 -210 65
-213z"/>
</g>
</svg>
